<svg width="287" height="189" viewBox="0 0 287 189" fill="none" xmlns="http://www.w3.org/2000/svg">
<circle cx="142.5" cy="104.5" r="83.5" fill="#E0EAEA"/>
<path d="M285.123 188H0.29248" stroke="#606060" stroke-miterlimit="10"/>
<mask id="mask0_2534_18891" style="mask-type:alpha" maskUnits="userSpaceOnUse" x="0" y="0" width="287" height="188">
<rect x="0.708008" width="286" height="188" fill="#D9D9D9"/>
</mask>
<g mask="url(#mask0_2534_18891)">
<path d="M174.428 216.988C146.94 226.464 110.82 231.224 92.284 212.966L98.2951 85.2783H168.342L174.428 216.988Z" fill="#E0E0E0"/>
<path d="M176.6 114.628L184.814 221.362C177.209 227.17 135.303 228.672 122.949 229.656L115.429 83.9971L147.539 85.6014V78.3086L154.299 81.866C166.323 83.202 176.011 75.6456 185.295 97.8456L176.6 114.628Z" fill="#56ADED"/>
<path d="M172.076 115.772C172.247 116.264 173.563 149.261 173.563 149.261C173.563 149.261 169.947 153.037 171.263 157.967C172.579 162.898 169.914 169.267 176.428 169.759C185.562 170.454 196.387 165.668 196.216 149.261C196.045 132.853 185.456 97.8457 185.456 97.8457L169.744 108.991L172.076 115.772Z" fill="#56ADED"/>
<path d="M119.291 75.1602C119.291 75.1602 113.836 78.7005 112.253 81.2889C103.7 81.2889 96.4483 79.8974 88.1122 85.9951C82.1225 90.2735 80.1117 97.8889 80.1117 97.8889C80.1117 97.8889 96.2732 115.313 95.1502 116.136C94.0271 116.96 94.6368 160.631 94.6368 160.631C94.6368 160.631 86.5186 216.485 88.123 218.624C89.7273 220.763 107.9 230.529 123.002 229.673C123.002 229.673 123.484 221.234 122.232 201.361C120.35 171.477 120.553 171.413 120.029 160.717C119.173 143.368 120.179 110.638 120.029 105.205C119.879 101.237 119.665 75.2992 119.291 75.1602Z" fill="#56ADED"/>
<path d="M80.1119 97.8252C80.1119 97.8252 74.4645 140.427 71.5552 144.352C74.2826 148.367 80.4756 147.779 81.235 153.181C82.0692 159.095 73.7906 162.711 84.9785 161.737C90.872 161.235 92.594 168.101 94.6048 161.737C98.0917 150.699 95.6531 143.026 95.6531 140.031C95.6531 137.036 99.2041 114.682 98.787 113.516C98.3698 112.35 80.1119 97.8252 80.1119 97.8252Z" fill="#56ADED"/>
<path d="M137.26 13.4551H138.458C144.285 13.6903 149.809 16.1132 153.928 20.2407C158.048 24.3681 160.46 29.8967 160.684 35.7239C161.123 46.9546 161.465 57.9286 161.144 63.9397C160.481 76.3683 147.71 77.5877 147.71 77.5877C147.71 77.5877 147.71 81.866 147.71 85.5668C146.383 87.828 144.522 89.7295 142.29 91.1049C140.058 92.4804 137.523 93.2878 134.906 93.4567C132.29 93.6256 129.672 93.1507 127.282 92.0736C124.891 90.9965 122.801 89.35 121.195 87.2782L119.665 85.3529L117.772 37.7241C117.227 24.8248 124.286 13.6797 137.26 13.4551Z" fill="#FFBF9D"/>
<path d="M118.446 47.0403C118.232 46.9334 109.997 44.1524 109.89 52.6664C109.783 61.1803 119.056 59.8006 119.077 59.5652C119.099 59.3299 118.446 47.0403 118.446 47.0403Z" fill="#FFBF9D"/>
<path d="M146.996 3.59959C133.223 1.45052 133.32 5.39598 125.399 10.3884C123.453 10.7235 121.561 11.3089 119.769 12.1297C111.558 16.4169 111.558 23.7017 112.849 27.9888C113.5 30.1519 113.335 39.9087 114.359 44.2763C115.366 48.565 117.568 47.4851 117.568 47.4851C121.436 41.7872 124.431 34.6289 125.399 27.9447C125.832 24.947 124.965 16.3728 124.965 16.3728C124.965 16.3728 124.367 31.3722 142.535 36.5079C146.874 37.7597 155.833 38.3584 160.352 38.3936C166.137 38.3936 168.518 35.5732 168.891 30.2701C169.27 24.3188 163.429 6.17848 146.996 3.59959Z" fill="#333333"/>
<path d="M117.568 47.4851C121.436 41.7872 124.431 34.6289 125.399 27.9447C125.832 24.947 124.965 16.3728 124.965 16.3728C124.965 16.3728 124.367 31.3722 142.535 36.5079C146.874 37.7597 155.833 38.3584 160.352 38.3936C166.137 38.3936 168.518 35.5733 168.891 30.2701C169.27 24.3188 163.429 6.17848 146.996 3.59959C133.223 1.45052 133.32 5.39598 125.399 10.3884C123.453 10.7235 121.561 11.3089 119.769 12.1297C111.558 16.4169 111.558 23.7017 112.849 27.9888C113.5 30.1519 113.335 39.9087 114.359 44.2763M117.568 47.4851C117.568 47.4851 115.366 48.565 114.359 44.2763M117.568 47.4851L114.359 44.2763" stroke="#333333" stroke-miterlimit="10" stroke-linejoin="round"/>
<path d="M205.232 122.051C204.155 123.369 203.367 124.9 202.922 126.543C202.558 128.607 197.938 155.422 196.729 159.155C195.232 163.818 192.119 173.306 179.733 169.744C171.176 167.284 170.866 154.224 176.696 147.068C182.525 139.913 192.237 119.377 192.943 116.714C193.649 114.05 200.59 106.018 208.601 103.878C216.613 101.739 220.624 101.739 223.576 97.846C226.528 93.9527 230.132 92.0595 231.833 94.9795C233.534 97.8994 223.576 106.627 223.576 106.627L209.671 119.986L205.232 122.051Z" fill="#FFBF9D"/>
<path d="M232.026 106.093C232.026 106.093 238.186 98.6056 242.208 101.718C242.208 101.718 236.988 108.703 235.224 110.596C233.459 112.489 228.881 113.804 228.881 113.804C228.881 113.804 224.303 119.099 221.843 119.805C220.538 120.243 219.126 120.243 217.821 119.805C217.821 119.805 217.757 121.003 213.875 121.559C209.992 122.115 199.713 121.067 199.713 121.067L193.36 115.719C193.36 115.719 196.569 110.371 201.403 110.264C206.238 110.157 209.864 113.858 209.864 113.858L214.142 113.783L216.752 110.403C216.752 110.403 216.249 101.526 221.544 102.51C221.544 102.51 221.725 99.6645 223.982 99.3864C224.627 99.3304 225.272 99.5049 225.8 99.8789C226.329 100.253 226.708 100.802 226.87 101.429C226.87 101.429 226.399 97.9318 228.303 97.2258C228.597 97.0651 228.921 96.9669 229.254 96.9373C229.588 96.9076 229.924 96.9473 230.241 97.0538C230.559 97.1603 230.851 97.3312 231.099 97.556C231.347 97.7807 231.546 98.0543 231.683 98.3596C232.197 99.3971 232.026 106.093 232.026 106.093Z" fill="#FFBF9D"/>
<path d="M94.0701 164.075C94.6616 158.814 94.7082 153.506 94.2092 148.235C93.6209 143.496 89.6955 129.517 89.4281 125.142C89.1607 120.768 89.0217 118.725 86.2835 116.671C83.5454 114.617 83.556 115.602 79.7269 113.259C75.8978 110.917 75.0849 109.302 69.3412 108.981C63.5975 108.66 59.0945 121.003 59.0945 121.003C59.0945 121.003 59.3726 123.602 60.4636 124.287C61.5546 124.971 62.9237 125.099 66.3357 124.96C69.7477 124.821 73.1703 125.645 73.4484 127.699C73.6217 132.615 73.1142 137.532 71.9403 142.309C70.5712 147.368 71.6729 153.24 72.6249 158.16C73.5768 163.081 75.5555 173.819 83.417 174.686C92.6476 175.702 94.0701 164.075 94.0701 164.075Z" fill="#FFBF9D"/>
<path d="M80.0906 118.703C80.0906 118.703 75.8122 118.275 75.1277 117.441C74.4432 116.606 72.0473 108.424 70.7103 106.552C69.3733 104.681 68.4748 104.317 67.0202 104.616C67.0202 104.616 67.2127 100.948 63.897 100.424C63.897 100.424 61.8327 100.103 61.5011 105.076C61.5011 105.076 61.8541 100.338 58.3458 98.7229C57.9357 98.5258 57.4652 98.4948 57.0328 98.6363C56.6003 98.7778 56.2392 99.0809 56.0248 99.4823C55.9306 99.671 55.8656 99.873 55.8323 100.081C55.6184 101.215 55.3296 106.499 55.3296 106.499C55.3296 106.499 54.9445 113.665 54.8483 113.355C54.752 113.045 50.4309 103.397 49.8105 102.466C49.5612 101.895 49.1238 101.427 48.5712 101.139C48.0185 100.851 47.3838 100.761 46.7729 100.883C46.4443 100.906 46.1305 101.028 45.8741 101.235C45.6177 101.442 45.4311 101.722 45.3396 102.039C45.331 102.554 45.3922 103.069 45.5215 103.568C46.1953 106.306 48.0243 113.965 48.7302 115.216C49.4362 116.467 56.0462 123.409 58.7416 123.634C60.1643 123.772 61.5972 123.772 63.0199 123.634L80.0906 118.703Z" fill="#FFBF9D"/>
<path d="M220.435 68.667C234.947 64.7431 243.531 49.7979 239.607 35.2858C235.683 20.7737 220.738 12.1902 206.226 16.1141C191.714 20.0379 183.13 34.9831 187.054 49.4952C190.978 64.0073 205.923 72.5908 220.435 68.667Z" fill="white"/>
<path d="M205.94 34.7795H210.25C210.247 34.2895 210.343 33.8039 210.531 33.3516C210.72 32.8992 210.997 32.4893 211.347 32.1461C211.696 31.8029 212.111 31.5334 212.567 31.3536C213.023 31.1739 213.51 31.0874 214 31.0995C214.725 31.0698 215.441 31.268 216.047 31.6662C216.653 32.0644 217.12 32.6426 217.38 33.3195C217.61 33.8856 217.702 34.4983 217.648 35.1069C217.594 35.7155 217.396 36.3025 217.07 36.8195C216.34 38.0195 214.74 39.1195 211.83 38.6095V48.3295H216.1V42.6295C217.854 42.1206 219.391 41.0489 220.476 39.5796C221.56 38.1104 222.131 36.3253 222.1 34.4995C222.1 28.1895 216.44 26.7295 214.02 26.7295C212.16 26.7295 205.86 27.1795 205.94 34.7795Z" fill="#EB8F00"/>
<path d="M216.16 50.3291H211.83V54.3691H216.16V50.3291Z" fill="#EB8F00"/>
</g>
</svg>
